
<svg xmlns="http://www.w3.org/2000/svg" viewBox="0 0 500 500"><g id="freepik--background-simple--inject-704"><path d="M324.18,23.36S251.45-2.51,180.05,38.67,72.62,161.59,41.69,227.06,28.56,359.14,83.06,389.51s91.56-14.4,168-16.58,97,8.75,160.47-34.44,74.92-145.2,24.87-220.68S324.18,23.36,324.18,23.36Z" style="fill:#673AB7"></path><path d="M324.18,23.36S251.45-2.51,180.05,38.67,72.62,161.59,41.69,227.06,28.56,359.14,83.06,389.51s91.56-14.4,168-16.58,97,8.75,160.47-34.44,74.92-145.2,24.87-220.68S324.18,23.36,324.18,23.36Z" style="fill:#fff;opacity:0.7000000000000001"></path></g><g id="freepik--Plants--inject-704"><path d="M454.36,398.16c-4-.57-11.61-5.53-11.62-5.53s4.79-4,5.12-4.24c3.89-2.49,12.86-5,16.85-1.73a6.12,6.12,0,0,1,.13,9.11C462.25,398.33,457.77,398.65,454.36,398.16Z" style="fill:#673AB7"></path><path d="M379.77,359.77c-.1,0,1.77-6,1.93-6.36,1.87-4.22,8-11.27,13.1-10.73a6.11,6.11,0,0,1,5.13,7.51c-.74,3.58-4.3,6.32-7.42,7.79C388.85,359.71,379.77,359.77,379.77,359.77Z" style="fill:#673AB7"></path><path d="M372.3,459.83c-1.77,2.2-3.38,4.27-4.82,6.17h-3.64c1.83-2.35,4-5,6.38-7.88,1.4-1.68,2.93-3.44,4.52-5.24a59.67,59.67,0,0,1-4-5.55c-3.25,1.09-9.89.8-10.75.76-.25,2.13-.47,4.22-.65,6.18-.42,4.45-.67,8.4-.84,11.73h-3c.24-3.4.59-7.44,1.11-12,.25-2.18.55-4.49.89-6.87-.84-.25-7.65-2.38-10.15-4.59-2.27-2-4.6-5.2-4.35-8.4a5.38,5.38,0,0,1,6.18-5.08c4.47.81,7.87,8.26,8.41,12.28,0,.24.09,2.85.1,4.5.14-1,.27-1.91.42-2.91.3-2,.66-3.93,1-6,.22-1,.44-2,.66-3.07s.54-2.09.81-3.15c.67-2.43,1.47-4.87,2.33-7.31-1.73-.26-7.85-1.3-10.41-2.95s-5.33-4.44-5.57-7.64a5.39,5.39,0,0,1,5.34-6c4.54.12,9,7,10.18,10.87.07.24.57,3.12.82,4.71.53-1.46,1.05-2.92,1.63-4.38,1.68-4.21,3.51-8.43,5.32-12.64.55-1.29,1.09-2.59,1.63-3.88-.61-.09-7.91-1.16-10.78-3-2.54-1.64-5.33-4.44-5.57-7.64a5.39,5.39,0,0,1,5.34-6c4.54.12,9,7,10.17,10.87.09.29.81,4.44.94,5.51,1.2-2.85,2.36-5.7,3.39-8.55a95.17,95.17,0,0,0,3.49-11.77c-.29,0-7.91-1.13-10.85-3-2.54-1.64-5.33-4.44-5.57-7.64a5.38,5.38,0,0,1,5.34-6c4.54.12,9,7,10.17,10.86.08.26.63,3.42.86,4.93h.26a69.09,69.09,0,0,0,1.31-12.28c.07-2.27,0-4.44-.1-6.55-1.44-.06-8-.39-10.85-1.81s-5.79-3.82-6.38-7a5.39,5.39,0,0,1,4.66-6.51c4.52-.38,9.74,5.94,11.3,9.68.09.21.72,2.37,1.16,4-.06-1-.11-1.94-.19-2.85-.29-3.43-.76-6.54-1.2-9.3-.26-1.57-.53-3-.8-4.29-1.38-.8-6.92-4.06-8.75-6.57s-3.37-6.07-2.44-9.14a5.38,5.38,0,0,1,7.13-3.63c4.19,1.75,5.91,9.76,5.57,13.8,0,.35-1.12,5.76-1.19,5.72l-.08-.05c.28,1.26.57,2.62.85,4.11.5,2.75,1,5.87,1.41,9.3a96.06,96.06,0,0,1,.64,11.12,70.85,70.85,0,0,1-1,12.42c0,.05,0,.1,0,.14.62-1.17,2.47-4.41,2.64-4.64,2.39-3.27,8.95-8.19,13.26-6.76a5.37,5.37,0,0,1,3,7.41c-1.31,2.93-4.89,4.62-7.84,5.3-3.33.77-10.59-.71-11.17-.83a95.7,95.7,0,0,1-3.32,12.25c-.79,2.34-1.66,4.67-2.56,7,.57-1,1.08-1.89,1.17-2,2.39-3.27,8.94-8.19,13.26-6.76a5.37,5.37,0,0,1,3,7.41c-1.31,2.93-4.88,4.62-7.83,5.3s-9.21-.45-10.85-.77c-.36.89-.7,1.78-1.06,2.67-1.72,4.26-3.45,8.5-5,12.71-.55,1.48-1,3-1.54,4.45.51-.89.94-1.64,1-1.74,2.39-3.28,8.94-8.19,13.26-6.77a5.38,5.38,0,0,1,3,7.42c-1.31,2.93-4.88,4.62-7.83,5.29s-8.61-.33-10.56-.71c-.46,1.54-.93,3.07-1.31,4.58-.23,1-.53,2-.71,3.06s-.4,2.06-.6,3.08c-.3,2-.63,4-.88,5.94-.19,1.34-.34,2.62-.49,3.91.53-1.48,1.64-4.36,1.76-4.59a20.88,20.88,0,0,1,7.35-7.55,5.93,5.93,0,0,1,.64-1,5.37,5.37,0,0,1,7.95-.83c3.29,3.14,2,11.23.24,14.88-.1.22-1.49,2.43-2.4,3.81.66-.73,1.28-1.45,2-2.19,1.34-1.48,2.71-2.92,4.19-4.47l2.25-2.19c.73-.75,1.6-1.45,2.4-2.18,1.91-1.67,3.92-3.26,6-4.82-1.29-1.17-5.82-5.41-7-8.2s-2-6.64-.43-9.44a5.38,5.38,0,0,1,7.74-2c3.72,2.61,3.69,10.8,2.49,14.68-.07.24-1.24,2.92-1.91,4.38,1.24-.92,2.48-1.85,3.77-2.75,3.73-2.59,7.58-5.1,11.42-7.61l3.5-2.33c-.47-.42-6-5.34-7.33-8.46-1.22-2.77-2-6.65-.43-9.45a5.37,5.37,0,0,1,7.74-2c3.72,2.6,3.69,10.8,2.49,14.67-.09.29-1.78,4.16-2.26,5.12,2.57-1.72,5.11-3.45,7.54-5.26a93.76,93.76,0,0,0,9.41-7.9c-.22-.19-6-5.3-7.38-8.5-1.22-2.77-2-6.65-.44-9.44a5.37,5.37,0,0,1,7.74-2c3.73,2.61,3.69,10.8,2.5,14.67-.08.26-1.37,3.2-2,4.59a1.59,1.59,0,0,1,.21.15,68.46,68.46,0,0,0,7.87-9.52c1.31-1.86,2.46-3.7,3.53-5.52-1.17-.85-6.47-4.75-8.05-7.49s-2.72-6.39-1.47-9.34a5.37,5.37,0,0,1,7.47-2.87c4,2.18,4.85,10.33,4.09,14.31,0,.22-.71,2.38-1.21,3.94.47-.83,1-1.68,1.41-2.48,1.65-3,3-5.87,4.13-8.42.64-1.45,1.2-2.77,1.7-4-.72-1.42-3.53-7.21-3.67-10.31s.53-6.92,3-9a5.37,5.37,0,0,1,7.95.9c2.53,3.77-.45,11.4-3,14.58-.21.28-4.1,4.19-4.14,4.12l-.05-.09c-.46,1.21-1,2.5-1.55,3.9-1.1,2.57-2.37,5.47-4,8.53a93.42,93.42,0,0,1-5.6,9.63,69.44,69.44,0,0,1-7.73,9.78.94.94,0,0,1-.1.1c1.16-.64,4.49-2.31,4.76-2.41,3.8-1.41,12-1.9,14.79,1.67a5.37,5.37,0,0,1-1.6,7.84c-2.7,1.72-6.61,1.15-9.45.09-3.2-1.2-8.44-6.43-8.86-6.85a94.35,94.35,0,0,1-9.53,8.38c-2,1.52-4,3-6,4.43,1-.52,1.95-1,2.09-1,3.8-1.41,12-1.9,14.79,1.67a5.37,5.37,0,0,1-1.6,7.84c-2.7,1.72-6.61,1.16-9.45.1s-7.44-5.46-8.63-6.63c-.78.54-1.56,1.1-2.35,1.64-3.78,2.6-7.57,5.18-11.21,7.83-1.28.93-2.5,1.9-3.74,2.86.92-.47,1.69-.85,1.81-.89,3.8-1.41,12-1.9,14.79,1.67a5.37,5.37,0,0,1-1.59,7.84c-2.71,1.72-6.62,1.16-9.46.09s-7-5-8.41-6.41c-1.23,1-2.47,2-3.61,3.09-.77.73-1.56,1.38-2.29,2.16l-2.2,2.24c-1.34,1.48-2.73,3-4,4.46-.89,1-1.73,2-2.57,3,1.27-.94,3.78-2.73,4-2.86,3.55-2,11.55-3.69,14.87-.59a5.38,5.38,0,0,1-.38,8C392.91,461,389,461,386,460.42c-3.26-.68-9-4.87-9.74-5.39C374.87,456.67,373.53,458.28,372.3,459.83Z" style="fill:#673AB7"></path><path d="M328.36,398.16c-4-.57-11.61-5.53-11.62-5.53s4.79-4,5.12-4.24c3.89-2.49,12.86-5,16.85-1.73a6.12,6.12,0,0,1,.13,9.11C336.25,398.33,331.77,398.65,328.36,398.16Z" style="fill:#673AB7"></path><path d="M253.77,359.77c-.1,0,1.77-6,1.93-6.36,1.87-4.22,8-11.27,13.1-10.73a6.11,6.11,0,0,1,5.13,7.51c-.74,3.58-4.3,6.32-7.42,7.79C262.85,359.71,253.77,359.77,253.77,359.77Z" style="fill:#673AB7"></path><path d="M246.3,459.83c-1.77,2.2-3.38,4.27-4.82,6.17h-3.64c1.83-2.35,4-5,6.38-7.88,1.4-1.68,2.93-3.44,4.52-5.24a59.67,59.67,0,0,1-4-5.55c-3.25,1.09-9.89.8-10.75.76-.25,2.13-.47,4.22-.65,6.18-.42,4.45-.67,8.4-.84,11.73h-2.95c.24-3.4.59-7.44,1.11-12,.25-2.18.55-4.49.89-6.87-.84-.25-7.65-2.38-10.15-4.59-2.27-2-4.6-5.2-4.35-8.4a5.38,5.38,0,0,1,6.18-5.08c4.47.81,7.87,8.26,8.41,12.28,0,.24.09,2.85.1,4.5.14-1,.27-1.91.42-2.91.3-2,.66-3.93,1-6,.22-1,.44-2,.66-3.07s.54-2.09.81-3.15c.67-2.43,1.47-4.87,2.33-7.31-1.73-.26-7.85-1.3-10.41-2.95s-5.33-4.44-5.57-7.64a5.39,5.39,0,0,1,5.34-6c4.54.12,9,7,10.18,10.87.07.24.57,3.12.82,4.71.53-1.46,1-2.92,1.63-4.38,1.68-4.21,3.51-8.43,5.32-12.64.55-1.29,1.09-2.59,1.63-3.88-.61-.09-7.91-1.16-10.78-3-2.54-1.64-5.33-4.44-5.57-7.64a5.39,5.39,0,0,1,5.34-6c4.54.12,9,7,10.17,10.87.09.29.81,4.44.94,5.51,1.2-2.85,2.36-5.7,3.39-8.55a95.17,95.17,0,0,0,3.49-11.77c-.29,0-7.91-1.13-10.85-3-2.54-1.64-5.33-4.44-5.57-7.64a5.38,5.38,0,0,1,5.34-6c4.54.12,9,7,10.17,10.86.08.26.63,3.42.86,4.93h.26a69.09,69.09,0,0,0,1.31-12.28c.07-2.27,0-4.44-.1-6.55-1.44-.06-8-.39-10.85-1.81s-5.79-3.82-6.38-7a5.39,5.39,0,0,1,4.65-6.51c4.53-.38,9.75,5.94,11.31,9.68.09.21.72,2.37,1.16,4-.06-1-.11-1.94-.19-2.85-.29-3.43-.76-6.54-1.2-9.3-.26-1.57-.53-3-.8-4.29-1.38-.8-6.92-4.06-8.75-6.57s-3.37-6.07-2.44-9.14a5.38,5.38,0,0,1,7.13-3.63c4.19,1.75,5.91,9.76,5.57,13.8,0,.35-1.12,5.76-1.19,5.72l-.08-.05c.28,1.26.57,2.62.85,4.11.5,2.75,1.05,5.87,1.41,9.3a96.06,96.06,0,0,1,.64,11.12,70.85,70.85,0,0,1-1.05,12.42c0,.05,0,.1,0,.14.62-1.17,2.47-4.41,2.64-4.64,2.39-3.27,8.95-8.19,13.26-6.76a5.37,5.37,0,0,1,3,7.41c-1.31,2.93-4.89,4.62-7.84,5.3-3.33.77-10.59-.71-11.17-.83a95.7,95.7,0,0,1-3.32,12.25c-.79,2.34-1.66,4.67-2.56,7,.57-1,1.08-1.89,1.17-2,2.39-3.27,8.94-8.19,13.26-6.76a5.37,5.37,0,0,1,3,7.41c-1.31,2.93-4.88,4.62-7.83,5.3s-9.21-.45-10.85-.77c-.36.89-.7,1.78-1.06,2.67-1.72,4.26-3.45,8.5-5,12.71-.55,1.48-1,3-1.54,4.45.51-.89.94-1.64,1-1.74,2.39-3.28,8.94-8.19,13.26-6.77a5.38,5.38,0,0,1,3,7.42c-1.31,2.93-4.88,4.62-7.83,5.29s-8.61-.33-10.56-.71c-.46,1.54-.93,3.07-1.31,4.58-.23,1-.53,2-.71,3.06s-.4,2.06-.6,3.08c-.3,2-.63,4-.88,5.94-.19,1.34-.34,2.62-.49,3.91.53-1.48,1.64-4.36,1.76-4.59a20.88,20.88,0,0,1,7.35-7.55,5.93,5.93,0,0,1,.64-1,5.37,5.37,0,0,1,8-.83c3.29,3.14,2,11.23.24,14.88-.1.22-1.49,2.43-2.4,3.81.66-.73,1.28-1.45,2-2.19,1.34-1.48,2.71-2.92,4.19-4.47l2.25-2.19c.73-.75,1.6-1.45,2.4-2.18,1.91-1.67,3.92-3.26,6-4.82-1.29-1.17-5.82-5.41-7-8.2s-2-6.64-.43-9.44a5.38,5.38,0,0,1,7.74-2c3.72,2.61,3.69,10.8,2.49,14.68-.07.24-1.24,2.92-1.91,4.38,1.24-.92,2.48-1.85,3.77-2.75,3.73-2.59,7.58-5.1,11.42-7.61l3.5-2.33c-.47-.42-6-5.34-7.33-8.46-1.22-2.77-2-6.65-.43-9.45a5.37,5.37,0,0,1,7.74-2c3.72,2.6,3.69,10.8,2.49,14.67-.09.29-1.78,4.16-2.26,5.12,2.57-1.72,5.11-3.45,7.54-5.26a93.76,93.76,0,0,0,9.41-7.9c-.22-.19-6-5.3-7.38-8.5-1.22-2.77-2-6.65-.44-9.44a5.37,5.37,0,0,1,7.74-2c3.73,2.61,3.69,10.8,2.5,14.67-.08.26-1.37,3.2-2,4.59a1.59,1.59,0,0,1,.21.15,68.46,68.46,0,0,0,7.87-9.52c1.31-1.86,2.46-3.7,3.53-5.52-1.17-.85-6.47-4.75-8.05-7.49s-2.72-6.39-1.47-9.34a5.37,5.37,0,0,1,7.47-2.87c4,2.18,4.85,10.33,4.09,14.31,0,.22-.71,2.38-1.21,3.94.47-.83,1-1.68,1.41-2.48,1.65-3,3-5.87,4.13-8.42.64-1.45,1.2-2.77,1.7-4-.72-1.42-3.53-7.21-3.67-10.31s.53-6.92,3-9a5.37,5.37,0,0,1,7.95.9c2.53,3.77-.45,11.4-3,14.58-.21.28-4.1,4.19-4.14,4.12l-.05-.09c-.46,1.21-1,2.5-1.55,3.9-1.1,2.57-2.37,5.47-4,8.53a93.42,93.42,0,0,1-5.6,9.63,69.44,69.44,0,0,1-7.73,9.78.94.94,0,0,1-.1.1c1.16-.64,4.49-2.31,4.76-2.41,3.8-1.41,12-1.9,14.79,1.67a5.37,5.37,0,0,1-1.6,7.84c-2.7,1.72-6.61,1.15-9.45.09-3.2-1.2-8.44-6.43-8.86-6.85a94.35,94.35,0,0,1-9.53,8.38c-2,1.52-4,3-6,4.43,1-.52,1.95-1,2.09-1,3.8-1.41,12-1.9,14.79,1.67a5.37,5.37,0,0,1-1.6,7.84c-2.7,1.72-6.61,1.16-9.45.1s-7.44-5.46-8.63-6.63c-.78.54-1.56,1.1-2.35,1.64-3.78,2.6-7.57,5.18-11.21,7.83-1.28.93-2.5,1.9-3.74,2.86.92-.47,1.69-.85,1.81-.89,3.8-1.41,12-1.9,14.79,1.67a5.37,5.37,0,0,1-1.59,7.84c-2.71,1.72-6.62,1.16-9.46.09s-7-5-8.41-6.41c-1.23,1-2.47,2-3.61,3.09-.77.73-1.56,1.38-2.29,2.16l-2.2,2.24c-1.34,1.48-2.73,3-4,4.46-.89,1-1.73,2-2.57,3,1.27-.94,3.78-2.73,4-2.86,3.55-2,11.55-3.69,14.87-.59a5.38,5.38,0,0,1-.38,8C266.91,461,263,461,260,460.42c-3.26-.68-9-4.87-9.74-5.39C248.87,456.67,247.53,458.28,246.3,459.83Z" style="fill:#673AB7"></path><path d="M48.33,405.73c3.56-.51,10.32-4.92,10.32-4.92s-4.25-3.57-4.55-3.76c-3.45-2.21-11.42-4.46-15-1.54A5.44,5.44,0,0,0,39,403.6C41.32,405.88,45.3,406.17,48.33,405.73Z" style="fill:#673AB7"></path><path d="M114.61,371.62c.08,0-1.58-5.33-1.72-5.65-1.66-3.75-7.07-10-11.64-9.54a5.43,5.43,0,0,0-4.56,6.68c.66,3.17,3.83,5.61,6.6,6.92C106.54,371.56,114.6,371.62,114.61,371.62Z" style="fill:#673AB7"></path><path d="M121.24,460.52c1.57,2,3,3.79,4.28,5.48h3.24c-1.63-2.09-3.53-4.45-5.67-7-1.25-1.49-2.61-3.06-4-4.65a53.18,53.18,0,0,0,3.59-4.94c2.88,1,8.78.71,9.55.67.22,1.9.41,3.75.57,5.5.37,3.95.6,7.46.75,10.42h2.62c-.21-3-.52-6.61-1-10.66-.22-1.93-.49-4-.78-6.1.74-.23,6.79-2.12,9-4.08,2-1.79,4.09-4.62,3.87-7.46a4.79,4.79,0,0,0-5.49-4.52c-4,.72-7,7.34-7.48,10.91,0,.21-.08,2.53-.08,4-.13-.86-.24-1.7-.38-2.59-.27-1.75-.59-3.49-.92-5.36-.2-.9-.39-1.81-.59-2.73s-.48-1.86-.72-2.8c-.59-2.16-1.3-4.33-2.07-6.49,1.54-.24,7-1.16,9.24-2.63s4.74-3.94,5-6.78a4.79,4.79,0,0,0-4.75-5.3c-4,.11-8,6.2-9,9.65-.06.22-.51,2.78-.73,4.2-.47-1.3-.93-2.6-1.45-3.9-1.49-3.74-3.12-7.49-4.72-11.23-.5-1.15-1-2.3-1.46-3.44.55-.08,7-1,9.58-2.68,2.26-1.46,4.74-3.94,5-6.79a4.77,4.77,0,0,0-4.74-5.29c-4,.11-8,6.19-9,9.65-.08.26-.72,3.95-.83,4.9-1.07-2.53-2.1-5.06-3-7.59a84.77,84.77,0,0,1-3.09-10.46c.25,0,7-1,9.63-2.69,2.26-1.46,4.74-3.94,5-6.79a4.77,4.77,0,0,0-4.74-5.29c-4,.11-8,6.19-9,9.65-.07.23-.56,3-.76,4.38h-.23A61.88,61.88,0,0,1,114,378.79c-.06-2,0-4,.09-5.83,1.28,0,7.13-.34,9.64-1.6s5.15-3.4,5.67-6.2a4.78,4.78,0,0,0-4.13-5.78c-4-.34-8.66,5.27-10,8.6-.07.18-.64,2.1-1,3.51.06-.85.1-1.72.17-2.53.25-3,.67-5.81,1.07-8.26.23-1.39.47-2.65.71-3.82,1.23-.7,6.15-3.6,7.77-5.83s3-5.39,2.17-8.12a4.78,4.78,0,0,0-6.33-3.23c-3.73,1.56-5.26,8.67-5,12.26,0,.31,1,5.12,1,5.09L116,357c-.25,1.12-.51,2.33-.76,3.65-.45,2.45-.93,5.22-1.25,8.26a84.62,84.62,0,0,0-.57,9.89,62.53,62.53,0,0,0,.93,11l0,.13c-.55-1-2.19-3.92-2.34-4.13-2.13-2.9-8-7.27-11.78-6a4.78,4.78,0,0,0-2.66,6.59c1.16,2.61,4.33,4.1,7,4.71,3,.68,9.41-.63,9.92-.74a84,84,0,0,0,3,10.89c.7,2.08,1.47,4.15,2.27,6.21-.51-.88-1-1.68-1-1.78-2.13-2.91-7.95-7.28-11.78-6a4.78,4.78,0,0,0-2.66,6.59c1.16,2.6,4.33,4.1,7,4.7s8.18-.39,9.64-.68c.31.79.62,1.59.94,2.37,1.53,3.79,3.07,7.55,4.46,11.3.5,1.31.93,2.63,1.38,3.95-.45-.79-.84-1.45-.91-1.55-2.13-2.91-8-7.28-11.78-6a4.78,4.78,0,0,0-2.66,6.59c1.16,2.6,4.34,4.1,7,4.71s7.64-.3,9.38-.63c.41,1.36.83,2.72,1.16,4.06.21.91.48,1.78.64,2.72s.35,1.83.53,2.74c.27,1.75.56,3.55.78,5.27.17,1.19.3,2.33.44,3.48-.48-1.32-1.46-3.88-1.57-4.08a18.39,18.39,0,0,0-6.53-6.71,5.21,5.21,0,0,0-.56-.9,4.78,4.78,0,0,0-7.07-.73c-2.92,2.79-1.79,10-.22,13.22.1.19,1.33,2.15,2.14,3.38l-1.75-2c-1.19-1.31-2.41-2.59-3.73-4l-2-1.94c-.65-.67-1.42-1.29-2.14-1.94-1.69-1.48-3.48-2.89-5.31-4.28,1.15-1,5.17-4.81,6.26-7.28s1.78-5.91.39-8.4a4.79,4.79,0,0,0-6.88-1.8c-3.31,2.32-3.28,9.6-2.22,13,.07.22,1.11,2.6,1.71,3.9-1.11-.82-2.21-1.65-3.36-2.45-3.31-2.3-6.73-4.52-10.14-6.76-1-.68-2.07-1.38-3.11-2.07.41-.37,5.3-4.74,6.51-7.51,1.08-2.47,1.78-5.91.39-8.4a4.79,4.79,0,0,0-6.88-1.8c-3.3,2.32-3.28,9.6-2.21,13,.08.26,1.58,3.69,2,4.54-2.28-1.52-4.53-3.06-6.7-4.67a83.6,83.6,0,0,1-8.35-7c.19-.17,5.31-4.71,6.55-7.56,1.09-2.46,1.78-5.9.39-8.39a4.78,4.78,0,0,0-6.88-1.8c-3.3,2.32-3.28,9.6-2.21,13,.07.23,1.21,2.84,1.78,4.07a2.14,2.14,0,0,1-.19.13,61.38,61.38,0,0,1-7-8.45c-1.16-1.65-2.18-3.29-3.14-4.91,1-.75,5.75-4.22,7.16-6.65s2.41-5.68,1.3-8.3a4.76,4.76,0,0,0-6.63-2.54c-3.54,1.93-4.32,9.17-3.64,12.71,0,.19.63,2.11,1.08,3.5-.42-.74-.87-1.49-1.26-2.21-1.46-2.67-2.64-5.21-3.66-7.47-.58-1.29-1.07-2.47-1.52-3.58.64-1.26,3.14-6.4,3.27-9.16s-.48-6.14-2.67-8a4.77,4.77,0,0,0-7.06.8c-2.25,3.35.4,10.13,2.63,13,.2.24,3.65,3.72,3.69,3.65l0-.07c.41,1.07.87,2.22,1.39,3.46,1,2.29,2.1,4.86,3.51,7.58a85.22,85.22,0,0,0,5,8.56,61.53,61.53,0,0,0,6.86,8.68l.1.1c-1-.57-4-2.06-4.23-2.15-3.38-1.26-10.64-1.69-13.14,1.48a4.78,4.78,0,0,0,1.41,7c2.41,1.53,5.88,1,8.4.08,2.85-1.06,7.5-5.71,7.87-6.09a82.72,82.72,0,0,0,8.48,7.45c1.73,1.35,3.51,2.65,5.32,3.93-.91-.46-1.73-.87-1.85-.91-3.38-1.25-10.65-1.69-13.14,1.49a4.77,4.77,0,0,0,1.41,7c2.41,1.53,5.88,1,8.4.08s6.61-4.84,7.67-5.88l2.09,1.46c3.36,2.31,6.72,4.6,10,6.95,1.14.83,2.23,1.69,3.33,2.54-.81-.41-1.5-.75-1.61-.79-3.38-1.25-10.64-1.69-13.14,1.49a4.77,4.77,0,0,0,1.42,7c2.4,1.53,5.88,1,8.4.08s6.21-4.46,7.47-5.7c1.1.91,2.19,1.82,3.21,2.75.69.65,1.39,1.23,2,1.92l2,2c1.19,1.31,2.43,2.66,3.56,4,.8.9,1.54,1.78,2.28,2.66-1.12-.84-3.36-2.43-3.56-2.54-3.15-1.75-10.26-3.28-13.21-.52a4.78,4.78,0,0,0,.34,7.1c2.15,1.87,5.66,1.9,8.29,1.35,2.9-.61,8-4.32,8.66-4.79C119,457.71,120.15,459.14,121.24,460.52Z" style="fill:#673AB7"></path></g><g id="freepik--Device--inject-704"><rect x="156.87" y="50.04" width="200.26" height="378.27" rx="7.67" style="fill:#263238;stroke:#263238;stroke-linecap:round;stroke-linejoin:round"></rect><rect x="165.78" y="91.57" width="182.46" height="295.2" style="fill:#fff;stroke:#263238;stroke-linecap:round;stroke-linejoin:round"></rect><path d="M276.84,70.91H237.17a2.7,2.7,0,0,1-2.7-2.7h0a2.7,2.7,0,0,1,2.7-2.71h39.67a2.7,2.7,0,0,1,2.7,2.71h0A2.7,2.7,0,0,1,276.84,70.91Z" style="fill:#fff"></path><path d="M267.82,403.44A10.82,10.82,0,1,0,257,414.26,10.81,10.81,0,0,0,267.82,403.44Z" style="fill:#fff;stroke:#263238;stroke-linecap:round;stroke-linejoin:round;stroke-width:0.704333px"></path><rect x="251.52" y="397.95" width="10.97" height="10.97" style="fill:#263238"></rect></g><g id="freepik--Icons--inject-704"><circle cx="254" cy="149" r="42" style="fill:#673AB7"></circle><polygon points="279.64 129.99 229.86 129.99 254.4 153.65 279.64 129.99" style="fill:#263238"></polygon><polygon points="264.37 148.41 281.7 163.73 281.7 132.17 264.37 148.41" style="fill:#263238"></polygon><polygon points="244.62 148.38 227.06 131.46 227.06 163.01 244.62 148.38" style="fill:#263238"></polygon><polygon points="262.17 150.47 254.37 157.78 246.79 150.48 228.52 165.7 279.4 165.7 262.17 150.47" style="fill:#263238"></polygon><circle cx="254" cy="241" r="42" style="fill:#673AB7"></circle><path d="M248.39,227.75a1.86,1.86,0,0,0,2.67.71c1.37-.75,2.74-1.5,4-2.37a5.34,5.34,0,0,0,1.1-1.49c-.25-.59-.38-1-.58-1.36-.54-1-1.12-2-1.69-3l-5.79-10a2,2,0,0,0-3.11-.83c-1.24.7-2.47,1.4-3.68,2.14a1.83,1.83,0,0,0-.75,2.64Q244.46,221,248.39,227.75Z" style="fill:#263238"></path><path d="M277.22,260.66q-3.8-6.6-7.62-13.18a1.89,1.89,0,0,0-2.87-.81q-1.91,1.07-3.78,2.19a1.88,1.88,0,0,0-.83,2.64l8.28,14.13a1.85,1.85,0,0,0,2.19.17c1.34-.73,2.69-1.46,4-2.31a6.24,6.24,0,0,0,1.18-1.45A9.66,9.66,0,0,0,277.22,260.66Z" style="fill:#263238"></path><path d="M260.08,252.41a6,6,0,0,1-5-.44,12.62,12.62,0,0,1-2.38-1.58A23.57,23.57,0,0,1,245.31,238c-.73-3-.93-6,1.37-8.4L238.16,215c-.67.43-1.32.84-1.93,1.27a7.94,7.94,0,0,0-3.73,7.34,47.41,47.41,0,0,0,1.29,8.81,69.76,69.76,0,0,0,14.71,27.08,36.76,36.76,0,0,0,9,7.91,9.77,9.77,0,0,0,11.08-.51Z" style="fill:#263238"></path><circle cx="254" cy="333" r="42" style="fill:#673AB7"></circle><path d="M247.81,340.87h-9.33v4.73a5.82,5.82,0,0,0,5.41,5.81Z" style="fill:#263238"></path><path d="M273.82,324.67h-4v8.23a8,8,0,0,1-8,8h-.14L247.4,351.43h15.5l-3.83,10.3L273,351.43h.84a5.84,5.84,0,0,0,5.84-5.83V330.5A5.84,5.84,0,0,0,273.82,324.67Z" style="fill:#263238"></path><path d="M261.81,312H232.3a5.83,5.83,0,0,0-5.83,5.83v15.1a5.84,5.84,0,0,0,5.83,5.84h18.59L247.06,349,261,338.74h.84a5.85,5.85,0,0,0,5.84-5.84V317.8A5.84,5.84,0,0,0,261.81,312Z" style="fill:#263238"></path><circle cx="238.97" cy="324.97" r="2.09" style="fill:#673AB7"></circle><path d="M249.57,325a2.09,2.09,0,1,1-2.09-2.09A2.1,2.1,0,0,1,249.57,325Z" style="fill:#673AB7"></path><path d="M258.07,325a2.09,2.09,0,1,1-2.08-2.09A2.09,2.09,0,0,1,258.07,325Z" style="fill:#673AB7"></path></g><g id="freepik--Floor--inject-704"><line x1="30" y1="466" x2="477" y2="466" style="fill:none;stroke:#263238;stroke-linecap:round;stroke-linejoin:round"></line></g></svg>