<svg width="122" height="36" viewBox="0 0 122 36" fill="none" xmlns="http://www.w3.org/2000/svg">
<mask id="mask0_1233_5996" style="mask-type:alpha" maskUnits="userSpaceOnUse" x="0" y="0" width="38" height="36">
<path d="M20.1003 35.7684C19.5653 36.0772 18.9062 36.0772 18.3712 35.7684L10.9518 31.4864C10.4166 31.1775 10.0868 30.6065 10.0868 29.9885V21.8529C10.0868 21.2349 9.75706 20.6639 9.22182 20.355L1.81812 16.082C1.28287 15.7731 0.953125 15.2021 0.953125 14.5841V6.01104C0.953125 5.39305 1.28287 4.82202 1.81811 4.51311L9.23666 0.231573C9.77209 -0.0774469 10.4318 -0.0771735 10.9669 0.23229L18.3701 4.51314C18.9057 4.82282 19.5658 4.82286 20.1014 4.51324L27.5049 0.233468C28.04 -0.0758896 28.6996 -0.0761228 29.235 0.232857L36.6537 4.51445C37.1889 4.82337 37.5187 5.39442 37.5186 6.01243L37.5184 14.5841C37.5184 15.2021 37.1886 15.7731 36.6534 16.082L29.2497 20.355C28.7144 20.6639 28.3847 21.2349 28.3847 21.8529V29.9885C28.3847 30.6065 28.0549 31.1775 27.5197 31.4864L20.1003 35.7684Z" fill="url(#paint0_linear_1233_5996)"/>
</mask>
<g mask="url(#mask0_1233_5996)">
<path d="M39.2765 4.25879L59.2806 15.8081V38.9069L39.2765 50.4562L19.2724 38.9069V15.8081L39.2765 4.25879Z" fill="url(#paint1_radial_1233_5996)"/>
<path d="M-0.711805 4.24805L19.2923 15.7974V38.8961L-0.711805 50.4455L-20.7159 38.8961V15.7974L-0.711805 4.24805Z" fill="url(#paint2_radial_1233_5996)"/>
<path d="M19.3077 -30.3418L39.3118 -18.7924V4.30627L19.3077 15.8556L-0.696371 4.30627V-18.7924L19.3077 -30.3418Z" fill="url(#paint3_linear_1233_5996)"/>
</g>
<path d="M49.9159 12.2477H54.8914V26.5H57.8674V12.2477H62.8429V9.50425H49.9159V12.2477ZM67.8849 26.8023C70.8841 26.8023 72.9766 25.291 73.4649 22.78H70.8376C70.5121 23.8727 69.4891 24.4772 67.9314 24.4772C66.0481 24.4772 64.9786 23.4542 64.7694 21.4315L73.4184 21.4082V20.548C73.4184 16.9675 71.2329 14.6657 67.7919 14.6657C64.4206 14.6657 62.0724 17.1535 62.0724 20.7572C62.0724 24.3145 64.4671 26.8023 67.8849 26.8023ZM67.8151 16.9907C69.5124 16.9907 70.6051 18.037 70.6051 19.618H64.8391C65.1181 17.8975 66.1411 16.9907 67.8151 16.9907ZM78.525 26.5V20.3155C78.525 18.4555 79.5945 17.2465 81.3383 17.2465C82.803 17.2465 83.7563 18.1765 83.7563 20.1062V26.5H86.5928V19.432C86.5928 16.456 85.1048 14.6657 82.2218 14.6657C80.664 14.6657 79.269 15.34 78.5483 16.5025L78.3158 15.0145H75.6885V26.5H78.525ZM88.3599 23.0125C88.3599 25.2677 90.1734 26.8023 93.0332 26.8023C95.8697 26.8023 97.8459 25.3607 97.8459 23.0357C97.8459 21.2687 96.8694 20.3852 94.9397 19.9435L92.8704 19.4552C91.8939 19.2227 91.3824 18.8042 91.3824 18.1532C91.3824 17.293 92.0334 16.7815 93.1494 16.7815C94.2422 16.7815 94.8932 17.4092 94.9164 18.3857H97.6134C97.5902 16.1537 95.8464 14.6657 93.2657 14.6657C90.6152 14.6657 88.7087 16.0142 88.7087 18.2695C88.7087 20.1062 89.7084 21.0827 91.7777 21.5477L93.8469 22.036C94.8699 22.2685 95.1722 22.687 95.1722 23.2682C95.1722 24.1052 94.4514 24.64 93.1262 24.64C91.8242 24.64 91.0802 24.0122 91.0569 23.0125H88.3599ZM99.3314 20.734C99.3314 24.3145 101.912 26.779 105.469 26.779C109.027 26.779 111.607 24.3145 111.607 20.734C111.607 17.1535 109.027 14.689 105.469 14.689C101.912 14.689 99.3314 17.1535 99.3314 20.734ZM102.168 20.734C102.168 18.6415 103.516 17.2232 105.469 17.2232C107.422 17.2232 108.771 18.6415 108.771 20.734C108.771 22.8265 107.422 24.2447 105.469 24.2447C103.516 24.2447 102.168 22.8265 102.168 20.734ZM121.063 14.968C120.598 14.8517 120.203 14.8052 119.808 14.8052C118.273 14.8052 117.18 15.5725 116.692 16.7117L116.529 15.0377H113.856V26.5H116.692V20.92C116.692 18.688 117.971 17.5952 120.017 17.5952H121.063V14.968Z" fill="white"/>
<defs>
<linearGradient id="paint0_linear_1233_5996" x1="119.308" y1="67.2064" x2="-10.4373" y2="19.6032" gradientUnits="userSpaceOnUse">
<stop stop-color="#00FFFF"/>
<stop offset="0.563733" stop-color="#0342F8"/>
<stop offset="1" stop-color="#C390FF"/>
</linearGradient>
<radialGradient id="paint1_radial_1233_5996" cx="0" cy="0" r="1" gradientUnits="userSpaceOnUse" gradientTransform="translate(12.7722 15.4132) rotate(44.9494) scale(23.0933 335.359)">
<stop stop-color="#FFB9FA"/>
<stop offset="0.374961" stop-color="#E467DB"/>
<stop offset="0.769499" stop-color="#6A5DEC"/>
<stop offset="1" stop-color="#2011BA"/>
</radialGradient>
<radialGradient id="paint2_radial_1233_5996" cx="0" cy="0" r="1" gradientUnits="userSpaceOnUse" gradientTransform="translate(2.53838 41.5274) rotate(-48.8892) scale(35.1591 510.578)">
<stop stop-color="#FFB9FA"/>
<stop offset="0.374961" stop-color="#E467DB"/>
<stop offset="0.769499" stop-color="#6A5DEC"/>
<stop offset="1" stop-color="#2011BA"/>
</radialGradient>
<linearGradient id="paint3_linear_1233_5996" x1="8.764" y1="0.0195084" x2="34.7013" y2="13.7061" gradientUnits="userSpaceOnUse">
<stop stop-color="#FFB9FA"/>
<stop offset="0.374961" stop-color="#E467DB"/>
<stop offset="0.769499" stop-color="#6A5DEC"/>
<stop offset="1" stop-color="#2011BA"/>
</linearGradient>
</defs>
</svg>
