<svg width="176" height="58" viewBox="0 0 176 58" fill="none" xmlns="http://www.w3.org/2000/svg">
<g filter="url(#filter0_dii_949_3329)">
<path fill-rule="evenodd" clip-rule="evenodd" d="M136.235 11.3716C139.18 9.25953 142.732 8.10254 146.403 8.10254C151.03 8.10254 155.468 9.94069 158.74 13.2126C161.234 15.7068 162.895 18.8784 163.543 22.295C165.818 23.1626 167.908 24.5049 169.662 26.2594C172.934 29.5314 174.772 33.9691 174.772 38.5963L164.356 38.5963V38.5993L139.369 38.5993H114.383V38.5963H101.952C101.952 33.9691 103.79 29.5314 107.062 26.2595C108.887 24.4345 111.075 23.0556 113.455 22.1929C114.303 19.6329 115.74 17.2794 117.682 15.3369C120.954 12.0649 125.392 10.2268 130.019 10.2268C132.164 10.2268 134.269 10.6218 136.235 11.3716Z" fill="url(#paint0_radial_949_3329)"/>
</g>
<g filter="url(#filter1_dii_949_3329)">
<path fill-rule="evenodd" clip-rule="evenodd" d="M78.2765 6.31379C83.1016 2.85354 88.9209 0.958008 94.9355 0.958008C102.517 0.958008 109.788 3.96975 115.149 9.33068C119.472 13.6537 122.267 19.2189 123.188 25.1873C128.888 26.5108 134.158 29.4061 138.363 33.611C144.28 39.5277 147.604 47.5526 147.604 55.9201L128.769 55.9201V55.9251L83.5839 55.9251H38.399V55.92H15.9197C15.9197 47.5525 19.2437 39.5276 25.1605 33.6109C29.4347 29.3366 34.809 26.4155 40.618 25.123C41.9444 20.511 44.4232 16.2642 47.8772 12.8102C53.2381 7.44924 60.5091 4.4375 68.0906 4.4375C71.6058 4.4375 75.0542 5.08494 78.2765 6.31379Z" fill="url(#paint1_radial_949_3329)"/>
</g>
<g filter="url(#filter2_d_949_3329)">
<mask id="path-3-inside-1_949_3329" fill="white">
<path fill-rule="evenodd" clip-rule="evenodd" d="M23.0005 24.6116C24.3967 23.6102 26.0808 23.0615 27.8214 23.0615C30.0151 23.0615 32.1189 23.933 33.6701 25.4842C34.8526 26.6666 35.6401 28.1703 35.9476 29.7901C37.0261 30.2014 38.0169 30.8378 38.8488 31.6697C40.4 33.2209 41.2715 35.3248 41.2715 37.5185L36.333 37.5185V37.5199L24.4869 37.5199H12.6408V37.5185H6.74809C6.74809 35.3248 7.61953 33.2209 9.17072 31.6697C10.036 30.8044 11.0734 30.1506 12.2023 29.7416C12.604 28.5282 13.2852 27.4127 14.206 26.492C15.7572 24.9408 17.861 24.0693 20.0548 24.0693C21.0713 24.0693 22.0686 24.2565 23.0005 24.6116Z"/>
</mask>
<path fill-rule="evenodd" clip-rule="evenodd" d="M23.0005 24.6116C24.3967 23.6102 26.0808 23.0615 27.8214 23.0615C30.0151 23.0615 32.1189 23.933 33.6701 25.4842C34.8526 26.6666 35.6401 28.1703 35.9476 29.7901C37.0261 30.2014 38.0169 30.8378 38.8488 31.6697C40.4 33.2209 41.2715 35.3248 41.2715 37.5185L36.333 37.5185V37.5199L24.4869 37.5199H12.6408V37.5185H6.74809C6.74809 35.3248 7.61953 33.2209 9.17072 31.6697C10.036 30.8044 11.0734 30.1506 12.2023 29.7416C12.604 28.5282 13.2852 27.4127 14.206 26.492C15.7572 24.9408 17.861 24.0693 20.0548 24.0693C21.0713 24.0693 22.0686 24.2565 23.0005 24.6116Z" fill="url(#paint2_linear_949_3329)"/>
<path fill-rule="evenodd" clip-rule="evenodd" d="M23.0005 24.6116C24.3967 23.6102 26.0808 23.0615 27.8214 23.0615C30.0151 23.0615 32.1189 23.933 33.6701 25.4842C34.8526 26.6666 35.6401 28.1703 35.9476 29.7901C37.0261 30.2014 38.0169 30.8378 38.8488 31.6697C40.4 33.2209 41.2715 35.3248 41.2715 37.5185L36.333 37.5185V37.5199L24.4869 37.5199H12.6408V37.5185H6.74809C6.74809 35.3248 7.61953 33.2209 9.17072 31.6697C10.036 30.8044 11.0734 30.1506 12.2023 29.7416C12.604 28.5282 13.2852 27.4127 14.206 26.492C15.7572 24.9408 17.861 24.0693 20.0548 24.0693C21.0713 24.0693 22.0686 24.2565 23.0005 24.6116Z" fill="#CFB9FF" fill-opacity="0.45"/>
<path d="M23.0005 24.6116L23.5575 25.3882L23.1401 25.6876L22.6601 25.5047L23.0005 24.6116ZM33.6701 25.4842L34.3459 24.8084V24.8084L33.6701 25.4842ZM35.9476 29.7901L35.6071 30.683L35.1083 30.4928L35.0087 29.9684L35.9476 29.7901ZM38.8488 31.6697L38.1731 32.3455H38.1731L38.8488 31.6697ZM41.2715 37.5185H42.2272V38.4742H41.2715L41.2715 37.5185ZM36.333 37.5185H35.3773V36.5628H36.333V37.5185ZM36.333 37.5199H37.2887V38.4756H36.333V37.5199ZM24.4869 37.5199V38.4756V37.5199ZM12.6408 37.5199V38.4756H11.6852V37.5199H12.6408ZM12.6408 37.5185V36.5628H13.5965V37.5185H12.6408ZM6.74809 37.5185V38.4742H5.79241V37.5185H6.74809ZM9.17072 31.6697L8.49496 30.994V30.994L9.17072 31.6697ZM12.2023 29.7416L13.1096 30.0419L12.9638 30.4822L12.5278 30.6402L12.2023 29.7416ZM14.206 26.492L14.8817 27.1677V27.1677L14.206 26.492ZM20.0548 24.0693V23.1137V24.0693ZM22.4435 23.8351C24.001 22.7179 25.8796 22.1058 27.8214 22.1058V24.0172C26.2819 24.0172 24.7924 24.5024 23.5575 25.3882L22.4435 23.8351ZM27.8214 22.1058C30.2685 22.1058 32.6155 23.078 34.3459 24.8084L32.9944 26.1599C31.6224 24.788 29.7616 24.0172 27.8214 24.0172V22.1058ZM34.3459 24.8084C35.665 26.1275 36.5435 27.8049 36.8865 29.6118L35.0087 29.9684C34.7367 28.5357 34.0402 27.2058 32.9944 26.1599L34.3459 24.8084ZM36.2882 28.8972C37.4912 29.356 38.5966 30.0659 39.5246 30.994L38.1731 32.3455C37.4373 31.6097 36.561 31.0469 35.6071 30.683L36.2882 28.8972ZM39.5246 30.994C41.255 32.7244 42.2272 35.0713 42.2272 37.5185H40.3158C40.3158 35.5782 39.545 33.7175 38.1731 32.3455L39.5246 30.994ZM41.2715 38.4742L36.333 38.4742V36.5628L41.2715 36.5628L41.2715 38.4742ZM37.2887 37.5185V37.5199H35.3773V37.5185H37.2887ZM36.333 38.4756L24.4869 38.4756V36.5642L36.333 36.5642V38.4756ZM24.4869 38.4756H12.6408V36.5642H24.4869V38.4756ZM11.6852 37.5199V37.5185H13.5965V37.5199H11.6852ZM12.6408 38.4742H6.74809V36.5628H12.6408V38.4742ZM5.79241 37.5185C5.79241 35.0713 6.76454 32.7244 8.49496 30.994L9.84649 32.3455C8.47453 33.7175 7.70376 35.5782 7.70376 37.5185H5.79241ZM8.49496 30.994C9.46027 30.0286 10.6175 29.2993 11.8768 28.8431L12.5278 30.6402C11.5292 31.0019 10.6118 31.5802 9.84649 32.3455L8.49496 30.994ZM11.295 29.4413C11.7431 28.0878 12.5031 26.8434 13.5302 25.8162L14.8817 27.1677C14.0674 27.9821 13.4649 28.9687 13.1096 30.0419L11.295 29.4413ZM13.5302 25.8162C15.2606 24.0858 17.6076 23.1137 20.0548 23.1137V25.025C18.1145 25.025 16.2537 25.7958 14.8817 27.1677L13.5302 25.8162ZM20.0548 23.1137C21.1887 23.1137 22.3013 23.3224 23.3408 23.7186L22.6601 25.5047C21.8358 25.1905 20.9539 25.025 20.0548 25.025V23.1137Z" fill="white" fill-opacity="0.3" mask="url(#path-3-inside-1_949_3329)"/>
</g>
<defs>
<filter id="filter0_dii_949_3329" x="101.387" y="3.86529" width="73.9505" height="35.8638" filterUnits="userSpaceOnUse" color-interpolation-filters="sRGB">
<feFlood flood-opacity="0" result="BackgroundImageFix"/>
<feColorMatrix in="SourceAlpha" type="matrix" values="0 0 0 0 0 0 0 0 0 0 0 0 0 0 0 0 0 0 127 0" result="hardAlpha"/>
<feOffset dy="0.564967"/>
<feGaussianBlur stdDeviation="0.282483"/>
<feComposite in2="hardAlpha" operator="out"/>
<feColorMatrix type="matrix" values="0 0 0 0 0.3 0 0 0 0 0.58 0 0 0 0 1 0 0 0 0.25 0"/>
<feBlend mode="normal" in2="BackgroundImageFix" result="effect1_dropShadow_949_3329"/>
<feBlend mode="normal" in="SourceGraphic" in2="effect1_dropShadow_949_3329" result="shape"/>
<feColorMatrix in="SourceAlpha" type="matrix" values="0 0 0 0 0 0 0 0 0 0 0 0 0 0 0 0 0 0 127 0" result="hardAlpha"/>
<feOffset dy="-3"/>
<feGaussianBlur stdDeviation="7.06209"/>
<feComposite in2="hardAlpha" operator="arithmetic" k2="-1" k3="1"/>
<feColorMatrix type="matrix" values="0 0 0 0 0.74 0 0 0 0 0 0 0 0 0 1 0 0 0 1 0"/>
<feBlend mode="normal" in2="shape" result="effect2_innerShadow_949_3329"/>
<feColorMatrix in="SourceAlpha" type="matrix" values="0 0 0 0 0 0 0 0 0 0 0 0 0 0 0 0 0 0 127 0" result="hardAlpha"/>
<feOffset dy="-4.23725"/>
<feGaussianBlur stdDeviation="3.53104"/>
<feComposite in2="hardAlpha" operator="arithmetic" k2="-1" k3="1"/>
<feColorMatrix type="matrix" values="0 0 0 0 0.924459 0 0 0 0 0.828801 0 0 0 0 0.969474 0 0 0 1 0"/>
<feBlend mode="normal" in2="effect2_innerShadow_949_3329" result="effect3_innerShadow_949_3329"/>
</filter>
<filter id="filter1_dii_949_3329" x="15.3547" y="-3.27924" width="132.814" height="60.3345" filterUnits="userSpaceOnUse" color-interpolation-filters="sRGB">
<feFlood flood-opacity="0" result="BackgroundImageFix"/>
<feColorMatrix in="SourceAlpha" type="matrix" values="0 0 0 0 0 0 0 0 0 0 0 0 0 0 0 0 0 0 127 0" result="hardAlpha"/>
<feOffset dy="0.564967"/>
<feGaussianBlur stdDeviation="0.282483"/>
<feComposite in2="hardAlpha" operator="out"/>
<feColorMatrix type="matrix" values="0 0 0 0 0.3 0 0 0 0 0.58 0 0 0 0 1 0 0 0 0.25 0"/>
<feBlend mode="normal" in2="BackgroundImageFix" result="effect1_dropShadow_949_3329"/>
<feBlend mode="normal" in="SourceGraphic" in2="effect1_dropShadow_949_3329" result="shape"/>
<feColorMatrix in="SourceAlpha" type="matrix" values="0 0 0 0 0 0 0 0 0 0 0 0 0 0 0 0 0 0 127 0" result="hardAlpha"/>
<feOffset dy="-3"/>
<feGaussianBlur stdDeviation="7.06209"/>
<feComposite in2="hardAlpha" operator="arithmetic" k2="-1" k3="1"/>
<feColorMatrix type="matrix" values="0 0 0 0 0.74 0 0 0 0 0 0 0 0 0 1 0 0 0 1 0"/>
<feBlend mode="normal" in2="shape" result="effect2_innerShadow_949_3329"/>
<feColorMatrix in="SourceAlpha" type="matrix" values="0 0 0 0 0 0 0 0 0 0 0 0 0 0 0 0 0 0 127 0" result="hardAlpha"/>
<feOffset dy="-4.23725"/>
<feGaussianBlur stdDeviation="3.53104"/>
<feComposite in2="hardAlpha" operator="arithmetic" k2="-1" k3="1"/>
<feColorMatrix type="matrix" values="0 0 0 0 0.924459 0 0 0 0 0.828801 0 0 0 0 0.969474 0 0 0 1 0"/>
<feBlend mode="normal" in2="effect2_innerShadow_949_3329" result="effect3_innerShadow_949_3329"/>
</filter>
<filter id="filter2_d_949_3329" x="0.881381" y="20.1282" width="46.2568" height="26.1918" filterUnits="userSpaceOnUse" color-interpolation-filters="sRGB">
<feFlood flood-opacity="0" result="BackgroundImageFix"/>
<feColorMatrix in="SourceAlpha" type="matrix" values="0 0 0 0 0 0 0 0 0 0 0 0 0 0 0 0 0 0 127 0" result="hardAlpha"/>
<feOffset dy="2.93333"/>
<feGaussianBlur stdDeviation="2.93333"/>
<feComposite in2="hardAlpha" operator="out"/>
<feColorMatrix type="matrix" values="0 0 0 0 0.398 0 0 0 0 0.3 0 0 0 0 1 0 0 0 0.51 0"/>
<feBlend mode="normal" in2="BackgroundImageFix" result="effect1_dropShadow_949_3329"/>
<feBlend mode="normal" in="SourceGraphic" in2="effect1_dropShadow_949_3329" result="shape"/>
</filter>
<radialGradient id="paint0_radial_949_3329" cx="0" cy="0" r="1" gradientUnits="userSpaceOnUse" gradientTransform="translate(138.362 12.4253) rotate(90) scale(26.1739 62.4985)">
<stop/>
<stop offset="0.591161"/>
<stop offset="0.859416" stop-color="#000342"/>
</radialGradient>
<radialGradient id="paint1_radial_949_3329" cx="0" cy="0" r="1" gradientUnits="userSpaceOnUse" gradientTransform="translate(81.7615 8.04068) rotate(90) scale(42.8845 102.401)">
<stop/>
<stop offset="0.591161"/>
<stop offset="0.859416" stop-color="#000342"/>
</radialGradient>
<linearGradient id="paint2_linear_949_3329" x1="24.0098" y1="23.0615" x2="24.0098" y2="37.5199" gradientUnits="userSpaceOnUse">
<stop stop-color="#538DFF"/>
<stop offset="1" stop-color="#8F00FF"/>
</linearGradient>
</defs>
</svg>
