<svg width="346" height="130" viewBox="0 0 346 130" fill="none" xmlns="http://www.w3.org/2000/svg">
<g filter="url(#filter0_dii_949_3375)">
<path fill-rule="evenodd" clip-rule="evenodd" d="M91.0144 8.20601C84.1944 3.31473 75.969 0.635255 67.4673 0.635254C56.7517 0.635253 46.475 4.89201 38.8979 12.4691C33.1216 18.2453 29.275 25.5904 27.7728 33.5028C22.5062 35.512 17.6672 38.6202 13.6044 42.683C6.02728 50.2601 1.77051 60.5368 1.77051 71.2525L25.8919 71.2525V71.2576L83.7564 71.2577H141.621V71.2525H170.407C170.407 60.5369 166.15 50.2601 158.573 42.683C154.347 38.4572 149.282 35.2642 143.769 33.2663C141.807 27.3374 138.479 21.8869 133.98 17.3881C126.403 9.81104 116.126 5.55427 105.41 5.55427C100.442 5.55427 95.5686 6.46929 91.0144 8.20601Z" fill="url(#paint0_radial_949_3375)"/>
</g>
<g filter="url(#filter1_dii_949_3375)">
<path fill-rule="evenodd" clip-rule="evenodd" d="M216.805 25.4813C206.925 18.396 195.01 14.5146 182.694 14.5146C167.17 14.5146 152.282 20.6814 141.305 31.6584C132.454 40.51 126.73 51.9048 124.845 64.1254C113.173 66.8352 102.383 72.7638 93.7726 81.3737C81.6576 93.4887 74.8514 109.92 74.8514 127.053L113.417 127.053V127.064L205.937 127.064H298.456V127.053H344.484C344.484 109.92 337.678 93.4887 325.563 81.3737C316.811 72.622 305.807 66.6406 293.913 63.9941C291.197 54.5511 286.121 45.8556 279.049 38.7835C268.072 27.8066 253.184 21.6398 237.661 21.6398C230.463 21.6398 223.403 22.9654 216.805 25.4813Z" fill="url(#paint1_radial_949_3375)"/>
<path fill-rule="evenodd" clip-rule="evenodd" d="M216.805 25.4813C206.925 18.396 195.01 14.5146 182.694 14.5146C167.17 14.5146 152.282 20.6814 141.305 31.6584C132.454 40.51 126.73 51.9048 124.845 64.1254C113.173 66.8352 102.383 72.7638 93.7726 81.3737C81.6576 93.4887 74.8514 109.92 74.8514 127.053L113.417 127.053V127.064L205.937 127.064H298.456V127.053H344.484C344.484 109.92 337.678 93.4887 325.563 81.3737C316.811 72.622 305.807 66.6406 293.913 63.9941C291.197 54.5511 286.121 45.8556 279.049 38.7835C268.072 27.8066 253.184 21.6398 237.661 21.6398C230.463 21.6398 223.403 22.9654 216.805 25.4813Z" fill="url(#paint2_linear_949_3375)" fill-opacity="0.2"/>
</g>
<defs>
<filter id="filter0_dii_949_3375" x="0.85204" y="-4.24185" width="170.473" height="77.3366" filterUnits="userSpaceOnUse" color-interpolation-filters="sRGB">
<feFlood flood-opacity="0" result="BackgroundImageFix"/>
<feColorMatrix in="SourceAlpha" type="matrix" values="0 0 0 0 0 0 0 0 0 0 0 0 0 0 0 0 0 0 127 0" result="hardAlpha"/>
<feOffset dy="0.918468"/>
<feGaussianBlur stdDeviation="0.459234"/>
<feComposite in2="hardAlpha" operator="out"/>
<feColorMatrix type="matrix" values="0 0 0 0 0.3 0 0 0 0 0.58 0 0 0 0 1 0 0 0 0.25 0"/>
<feBlend mode="normal" in2="BackgroundImageFix" result="effect1_dropShadow_949_3375"/>
<feBlend mode="normal" in="SourceGraphic" in2="effect1_dropShadow_949_3375" result="shape"/>
<feColorMatrix in="SourceAlpha" type="matrix" values="0 0 0 0 0 0 0 0 0 0 0 0 0 0 0 0 0 0 127 0" result="hardAlpha"/>
<feOffset dy="-4.87711"/>
<feGaussianBlur stdDeviation="11.4809"/>
<feComposite in2="hardAlpha" operator="arithmetic" k2="-1" k3="1"/>
<feColorMatrix type="matrix" values="0 0 0 0 0.74 0 0 0 0 0 0 0 0 0 1 0 0 0 0.72 0"/>
<feBlend mode="normal" in2="shape" result="effect2_innerShadow_949_3375"/>
<feColorMatrix in="SourceAlpha" type="matrix" values="0 0 0 0 0 0 0 0 0 0 0 0 0 0 0 0 0 0 127 0" result="hardAlpha"/>
<feOffset dy="-1.95084"/>
<feGaussianBlur stdDeviation="9.75421"/>
<feComposite in2="hardAlpha" operator="arithmetic" k2="-1" k3="1"/>
<feColorMatrix type="matrix" values="0 0 0 0 0.924459 0 0 0 0 0.828801 0 0 0 0 0.969474 0 0 0 1 0"/>
<feBlend mode="normal" in2="effect2_innerShadow_949_3375" result="effect3_innerShadow_949_3375"/>
</filter>
<filter id="filter1_dii_949_3375" x="73.8313" y="6.86361" width="283.405" height="122.241" filterUnits="userSpaceOnUse" color-interpolation-filters="sRGB">
<feFlood flood-opacity="0" result="BackgroundImageFix"/>
<feColorMatrix in="SourceAlpha" type="matrix" values="0 0 0 0 0 0 0 0 0 0 0 0 0 0 0 0 0 0 127 0" result="hardAlpha"/>
<feOffset dy="1.02014"/>
<feGaussianBlur stdDeviation="0.510069"/>
<feComposite in2="hardAlpha" operator="out"/>
<feColorMatrix type="matrix" values="0 0 0 0 0.3 0 0 0 0 0.58 0 0 0 0 1 0 0 0 0.25 0"/>
<feBlend mode="normal" in2="BackgroundImageFix" result="effect1_dropShadow_949_3375"/>
<feBlend mode="normal" in="SourceGraphic" in2="effect1_dropShadow_949_3375" result="shape"/>
<feColorMatrix in="SourceAlpha" type="matrix" values="0 0 0 0 0 0 0 0 0 0 0 0 0 0 0 0 0 0 127 0" result="hardAlpha"/>
<feOffset dy="-5.41698"/>
<feGaussianBlur stdDeviation="12.7517"/>
<feComposite in2="hardAlpha" operator="arithmetic" k2="-1" k3="1"/>
<feColorMatrix type="matrix" values="0 0 0 0 0.74 0 0 0 0 0 0 0 0 0 1 0 0 0 1 0"/>
<feBlend mode="normal" in2="shape" result="effect2_innerShadow_949_3375"/>
<feColorMatrix in="SourceAlpha" type="matrix" values="0 0 0 0 0 0 0 0 0 0 0 0 0 0 0 0 0 0 127 0" result="hardAlpha"/>
<feOffset dx="13.0056" dy="-7.65103"/>
<feGaussianBlur stdDeviation="6.37586"/>
<feComposite in2="hardAlpha" operator="arithmetic" k2="-1" k3="1"/>
<feColorMatrix type="matrix" values="0 0 0 0 0.924459 0 0 0 0 0.828801 0 0 0 0 0.969474 0 0 0 1 0"/>
<feBlend mode="normal" in2="effect2_innerShadow_949_3375" result="effect3_innerShadow_949_3375"/>
</filter>
<radialGradient id="paint0_radial_949_3375" cx="0" cy="0" r="1" gradientUnits="userSpaceOnUse" gradientTransform="translate(86.0888 10.6457) rotate(90) scale(60.6119 144.733)">
<stop/>
<stop offset="0.591161"/>
<stop offset="0.859416" stop-color="#000342"/>
</radialGradient>
<radialGradient id="paint1_radial_949_3375" cx="0" cy="0" r="1" gradientUnits="userSpaceOnUse" gradientTransform="translate(209.668 29.017) rotate(90) scale(87.8094 209.674)">
<stop/>
<stop offset="0.591161"/>
<stop offset="0.859416" stop-color="#000342"/>
</radialGradient>
<linearGradient id="paint2_linear_949_3375" x1="209.668" y1="14.5146" x2="247.493" y2="100.877" gradientUnits="userSpaceOnUse">
<stop stop-color="white"/>
<stop offset="1" stop-opacity="0"/>
</linearGradient>
</defs>
</svg>
