<svg width="32" height="32" viewBox="0 0 27 27" fill="none" xmlns="http://www.w3.org/2000/svg">
<g clip-path="url(#clip0_949_2851)">
<g filter="url(#filter0_ii_949_2851)">
<path d="M25.2266 7.22444C24.6875 6.35353 24.3557 6.12543 19.0887 3.03577C16.5797 1.56351 14.2987 0.360824 14.0084 0.340088C13.7181 0.340088 11.2505 0.920697 8.51338 1.64646C4.24177 2.7662 3.53674 3.01503 3.53674 3.34681C3.53674 3.86521 12.9716 9.23583 13.884 9.23583C14.2158 9.23583 16.3309 8.75891 18.5911 8.1783C21.8052 7.34886 22.7798 7.18297 23.1115 7.34886C23.6714 7.6599 23.858 8.34419 23.4848 8.88332C23.3189 9.13215 21.4319 10.3141 19.2961 11.5168C17.1603 12.7195 15.2733 13.8807 15.1074 14.1295C15.0508 14.2171 15.0057 14.3583 14.9705 14.5907L15.4825 25.9348C16.8671 25.3712 24.9833 20.7512 25.351 20.2674C25.5584 20.0186 25.6206 18.4219 25.6206 13.9222C25.6206 8.32345 25.5998 7.84652 25.2266 7.22444Z" fill="#673BB8"/>
</g>
<g filter="url(#filter1_ii_949_2851)">
<path d="M25.2265 7.22444C24.6874 6.35353 24.3556 6.12543 19.0886 3.03577C16.5796 1.56351 14.2986 0.360824 14.0083 0.340088C13.718 0.340088 11.2504 0.920697 8.51328 1.64646C4.24167 2.7662 3.53664 3.01503 3.53664 3.34681C3.53664 3.86521 12.9715 9.23583 13.8839 9.23583C14.2157 9.23583 16.3308 8.75891 18.591 8.1783C21.8051 7.34886 22.7797 7.18297 23.1114 7.34886C23.6713 7.6599 23.8579 8.34419 23.4847 8.88332C23.3188 9.13215 21.4318 10.3141 19.296 11.5168C17.1602 12.7195 15.2732 13.8807 15.1073 14.1295C15.0507 14.2171 15.0056 14.3583 14.9704 14.5907L15.4824 25.9348C16.867 25.3712 24.9832 20.7512 25.3509 20.2674C25.5583 20.0186 25.6205 18.4219 25.6205 13.9222C25.6205 8.32345 25.5997 7.84652 25.2265 7.22444Z" fill="#673BB8"/>
</g>
<g style="mix-blend-mode:color-dodge" filter="url(#filter2_i_949_2851)">
<path d="M25.2265 7.22444C24.6874 6.35353 24.3556 6.12543 19.0886 3.03577C16.5796 1.56351 14.2986 0.360824 14.0083 0.340088C13.718 0.340088 11.2504 0.920697 8.51328 1.64646C4.24167 2.7662 3.53664 3.01503 3.53664 3.34681C3.53664 3.86521 12.9715 9.23583 13.8839 9.23583C14.2157 9.23583 16.3308 8.75891 18.591 8.1783C21.8051 7.34886 22.7797 7.18297 23.1114 7.34886C23.6713 7.6599 23.8579 8.34419 23.4847 8.88332C23.3188 9.13215 21.4318 10.3141 19.296 11.5168C17.1602 12.7195 15.2732 13.8807 15.1073 14.1295C15.0507 14.2171 15.0056 14.3583 14.9704 14.5907L15.4824 25.9348C16.867 25.3712 24.9832 20.7512 25.3509 20.2674C25.5583 20.0186 25.6205 18.4219 25.6205 13.9222C25.6205 8.32345 25.5997 7.84652 25.2265 7.22444Z" fill="white"/>
</g>
<g opacity="0.1" filter="url(#filter3_ii_949_2851)">
<path fill-rule="evenodd" clip-rule="evenodd" d="M6.84009 6.94025L6.1558 6.50479C5.78255 6.2767 5.3471 6.06934 5.18121 6.06934C4.80796 6.06934 2.63068 7.29276 2.2989 7.68674C2.11228 7.93558 2.05007 9.51151 2.05007 13.949C2.05007 18.3865 2.11228 19.9625 2.2989 20.2113C2.68281 20.6912 10.6719 25.2402 12.153 25.8642L12.6711 14.3868C12.6363 14.2248 12.5938 14.1211 12.5425 14.0527C12.3973 13.8453 10.4482 12.6219 8.25014 11.3778C5.88623 10.0299 4.22735 8.95164 4.22735 8.76502C4.22735 8.59913 4.80796 8.1222 5.53372 7.70748L6.84009 6.94025Z" fill="#5D29F0"/>
<path fill-rule="evenodd" clip-rule="evenodd" d="M6.84009 6.94025L6.1558 6.50479C5.78255 6.2767 5.3471 6.06934 5.18121 6.06934C4.80796 6.06934 2.63068 7.29276 2.2989 7.68674C2.11228 7.93558 2.05007 9.51151 2.05007 13.949C2.05007 18.3865 2.11228 19.9625 2.2989 20.2113C2.68281 20.6912 10.6719 25.2402 12.153 25.8642L12.6711 14.3868C12.6363 14.2248 12.5938 14.1211 12.5425 14.0527C12.3973 13.8453 10.4482 12.6219 8.25014 11.3778C5.88623 10.0299 4.22735 8.95164 4.22735 8.76502C4.22735 8.59913 4.80796 8.1222 5.53372 7.70748L6.84009 6.94025Z" fill="url(#paint0_radial_949_2851)" fill-opacity="0.08"/>
<path fill-rule="evenodd" clip-rule="evenodd" d="M6.84009 6.94025L6.1558 6.50479C5.78255 6.2767 5.3471 6.06934 5.18121 6.06934C4.80796 6.06934 2.63068 7.29276 2.2989 7.68674C2.11228 7.93558 2.05007 9.51151 2.05007 13.949C2.05007 18.3865 2.11228 19.9625 2.2989 20.2113C2.68281 20.6912 10.6719 25.2402 12.153 25.8642L12.6711 14.3868C12.6363 14.2248 12.5938 14.1211 12.5425 14.0527C12.3973 13.8453 10.4482 12.6219 8.25014 11.3778C5.88623 10.0299 4.22735 8.95164 4.22735 8.76502C4.22735 8.59913 4.80796 8.1222 5.53372 7.70748L6.84009 6.94025Z" fill="url(#paint1_radial_949_2851)"/>
</g>
<path fill-rule="evenodd" clip-rule="evenodd" d="M6.84009 6.94025L6.1558 6.50479C5.78255 6.2767 5.3471 6.06934 5.18121 6.06934C4.80796 6.06934 2.63068 7.29276 2.2989 7.68674C2.11228 7.93558 2.05007 9.51151 2.05007 13.949C2.05007 18.3865 2.11228 19.9625 2.2989 20.2113C2.68281 20.6912 10.6719 25.2402 12.153 25.8642L12.6711 14.3868C12.6363 14.2248 12.5938 14.1211 12.5425 14.0527C12.3973 13.8453 10.4482 12.6219 8.25014 11.3778C5.88623 10.0299 4.22735 8.95164 4.22735 8.76502C4.22735 8.59913 4.80796 8.1222 5.53372 7.70748L6.84009 6.94025Z" fill="white"/>
<g opacity="0.1">
<path fill-rule="evenodd" clip-rule="evenodd" d="M15.3141 22.2221L15.4817 25.9352C16.8663 25.3716 24.9825 20.7516 25.3502 20.2678C25.5575 20.0189 25.6198 18.4223 25.6198 13.9226C25.6198 13.5396 25.6197 13.1807 25.6194 12.844L15.3141 22.2221Z" fill="#5D29F0"/>
<path fill-rule="evenodd" clip-rule="evenodd" d="M15.3141 22.2221L15.4817 25.9352C16.8663 25.3716 24.9825 20.7516 25.3502 20.2678C25.5575 20.0189 25.6198 18.4223 25.6198 13.9226C25.6198 13.5396 25.6197 13.1807 25.6194 12.844L15.3141 22.2221Z" fill="url(#paint2_radial_949_2851)" fill-opacity="0.08"/>
<path fill-rule="evenodd" clip-rule="evenodd" d="M15.3141 22.2221L15.4817 25.9352C16.8663 25.3716 24.9825 20.7516 25.3502 20.2678C25.5575 20.0189 25.6198 18.4223 25.6198 13.9226C25.6198 13.5396 25.6197 13.1807 25.6194 12.844L15.3141 22.2221Z" fill="url(#paint3_radial_949_2851)"/>
</g>
<g opacity="0.1">
<path fill-rule="evenodd" clip-rule="evenodd" d="M2.1326 19.2065C2.1713 19.8097 2.22549 20.1134 2.29897 20.2114C2.68287 20.6912 10.6713 25.2399 12.1529 25.8642L12.3127 22.3248L2.1326 19.2065Z" fill="#5D29F0"/>
<path fill-rule="evenodd" clip-rule="evenodd" d="M2.1326 19.2065C2.1713 19.8097 2.22549 20.1134 2.29897 20.2114C2.68287 20.6912 10.6713 25.2399 12.1529 25.8642L12.3127 22.3248L2.1326 19.2065Z" fill="url(#paint4_radial_949_2851)" fill-opacity="0.08"/>
<path fill-rule="evenodd" clip-rule="evenodd" d="M2.1326 19.2065C2.1713 19.8097 2.22549 20.1134 2.29897 20.2114C2.68287 20.6912 10.6713 25.2399 12.1529 25.8642L12.3127 22.3248L2.1326 19.2065Z" fill="url(#paint5_radial_949_2851)"/>
</g>
<g opacity="0.1">
<path fill-rule="evenodd" clip-rule="evenodd" d="M10.5352 25.0501C11.268 25.4412 11.8483 25.7358 12.153 25.8642L12.6711 14.3868C12.6363 14.2248 12.5938 14.1211 12.5425 14.0527C12.4713 13.951 11.9664 13.605 11.211 13.1321L10.5352 25.0501Z" fill="#5D29F0"/>
<path fill-rule="evenodd" clip-rule="evenodd" d="M10.5352 25.0501C11.268 25.4412 11.8483 25.7358 12.153 25.8642L12.6711 14.3868C12.6363 14.2248 12.5938 14.1211 12.5425 14.0527C12.4713 13.951 11.9664 13.605 11.211 13.1321L10.5352 25.0501Z" fill="url(#paint6_radial_949_2851)" fill-opacity="0.08"/>
<path fill-rule="evenodd" clip-rule="evenodd" d="M10.5352 25.0501C11.268 25.4412 11.8483 25.7358 12.153 25.8642L12.6711 14.3868C12.6363 14.2248 12.5938 14.1211 12.5425 14.0527C12.4713 13.951 11.9664 13.605 11.211 13.1321L10.5352 25.0501Z" fill="url(#paint7_radial_949_2851)"/>
</g>
<g opacity="0.1">
<path fill-rule="evenodd" clip-rule="evenodd" d="M6.91035 5.62988L13.5902 8.60359L23.2182 7.19696L23.1905 7.3853C23.1719 7.37353 23.1528 7.36221 23.1332 7.35134C22.8014 7.18545 21.8268 7.35134 18.6127 8.18078C16.3525 8.76138 14.2374 9.23831 13.9057 9.23831C13.3564 9.23831 9.719 7.2922 6.91035 5.62988Z" fill="#5D29F0"/>
<path fill-rule="evenodd" clip-rule="evenodd" d="M6.91035 5.62988L13.5902 8.60359L23.2182 7.19696L23.1905 7.3853C23.1719 7.37353 23.1528 7.36221 23.1332 7.35134C22.8014 7.18545 21.8268 7.35134 18.6127 8.18078C16.3525 8.76138 14.2374 9.23831 13.9057 9.23831C13.3564 9.23831 9.719 7.2922 6.91035 5.62988Z" fill="url(#paint8_radial_949_2851)" fill-opacity="0.08"/>
<path fill-rule="evenodd" clip-rule="evenodd" d="M6.91035 5.62988L13.5902 8.60359L23.2182 7.19696L23.1905 7.3853C23.1719 7.37353 23.1528 7.36221 23.1332 7.35134C22.8014 7.18545 21.8268 7.35134 18.6127 8.18078C16.3525 8.76138 14.2374 9.23831 13.9057 9.23831C13.3564 9.23831 9.719 7.2922 6.91035 5.62988Z" fill="url(#paint9_radial_949_2851)"/>
</g>
<g opacity="0.1">
<path fill-rule="evenodd" clip-rule="evenodd" d="M23.1511 21.699C24.3512 20.9823 25.2352 20.4199 25.351 20.2676C25.5583 20.0187 25.6205 18.4221 25.6205 13.9224C25.6205 12.4047 25.619 11.2634 25.6094 10.3936L23.1511 21.699Z" fill="#5D29F0"/>
<path fill-rule="evenodd" clip-rule="evenodd" d="M23.1511 21.699C24.3512 20.9823 25.2352 20.4199 25.351 20.2676C25.5583 20.0187 25.6205 18.4221 25.6205 13.9224C25.6205 12.4047 25.619 11.2634 25.6094 10.3936L23.1511 21.699Z" fill="url(#paint10_radial_949_2851)" fill-opacity="0.08"/>
<path fill-rule="evenodd" clip-rule="evenodd" d="M23.1511 21.699C24.3512 20.9823 25.2352 20.4199 25.351 20.2676C25.5583 20.0187 25.6205 18.4221 25.6205 13.9224C25.6205 12.4047 25.619 11.2634 25.6094 10.3936L23.1511 21.699Z" fill="url(#paint11_radial_949_2851)"/>
</g>
</g>
<defs>
<filter id="filter0_ii_949_2851" x="3.53674" y="-6.31959" width="22.0839" height="32.2544" filterUnits="userSpaceOnUse" color-interpolation-filters="sRGB">
<feFlood flood-opacity="0" result="BackgroundImageFix"/>
<feBlend mode="normal" in="SourceGraphic" in2="BackgroundImageFix" result="shape"/>
<feColorMatrix in="SourceAlpha" type="matrix" values="0 0 0 0 0 0 0 0 0 0 0 0 0 0 0 0 0 0 127 0" result="hardAlpha"/>
<feOffset/>
<feGaussianBlur stdDeviation="9.27924"/>
<feComposite in2="hardAlpha" operator="arithmetic" k2="-1" k3="1"/>
<feColorMatrix type="matrix" values="0 0 0 0 0.74 0 0 0 0 0 0 0 0 0 1 0 0 0 1 0"/>
<feBlend mode="normal" in2="shape" result="effect1_innerShadow_949_2851"/>
<feColorMatrix in="SourceAlpha" type="matrix" values="0 0 0 0 0 0 0 0 0 0 0 0 0 0 0 0 0 0 127 0" result="hardAlpha"/>
<feOffset dy="-9.26231"/>
<feGaussianBlur stdDeviation="3.32984"/>
<feComposite in2="hardAlpha" operator="arithmetic" k2="-1" k3="1"/>
<feColorMatrix type="matrix" values="0 0 0 0 0.744624 0 0 0 0 0.758871 0 0 0 0 0.991574 0 0 0 1 0"/>
<feBlend mode="normal" in2="effect1_innerShadow_949_2851" result="effect2_innerShadow_949_2851"/>
</filter>
<filter id="filter1_ii_949_2851" x="3.53662" y="-6.31959" width="22.0839" height="32.2544" filterUnits="userSpaceOnUse" color-interpolation-filters="sRGB">
<feFlood flood-opacity="0" result="BackgroundImageFix"/>
<feBlend mode="normal" in="SourceGraphic" in2="BackgroundImageFix" result="shape"/>
<feColorMatrix in="SourceAlpha" type="matrix" values="0 0 0 0 0 0 0 0 0 0 0 0 0 0 0 0 0 0 127 0" result="hardAlpha"/>
<feOffset/>
<feGaussianBlur stdDeviation="9.27924"/>
<feComposite in2="hardAlpha" operator="arithmetic" k2="-1" k3="1"/>
<feColorMatrix type="matrix" values="0 0 0 0 0.74 0 0 0 0 0 0 0 0 0 1 0 0 0 0.24 0"/>
<feBlend mode="normal" in2="shape" result="effect1_innerShadow_949_2851"/>
<feColorMatrix in="SourceAlpha" type="matrix" values="0 0 0 0 0 0 0 0 0 0 0 0 0 0 0 0 0 0 127 0" result="hardAlpha"/>
<feOffset dy="-9.26231"/>
<feGaussianBlur stdDeviation="3.32984"/>
<feComposite in2="hardAlpha" operator="arithmetic" k2="-1" k3="1"/>
<feColorMatrix type="matrix" values="0 0 0 0 0.879904 0 0 0 0 0.886528 0 0 0 0 0.994705 0 0 0 1 0"/>
<feBlend mode="normal" in2="effect1_innerShadow_949_2851" result="effect2_innerShadow_949_2851"/>
</filter>
<filter id="filter2_i_949_2851" x="3.53662" y="-4.85933" width="22.0839" height="30.7941" filterUnits="userSpaceOnUse" color-interpolation-filters="sRGB">
<feFlood flood-opacity="0" result="BackgroundImageFix"/>
<feBlend mode="normal" in="SourceGraphic" in2="BackgroundImageFix" result="shape"/>
<feColorMatrix in="SourceAlpha" type="matrix" values="0 0 0 0 0 0 0 0 0 0 0 0 0 0 0 0 0 0 127 0" result="hardAlpha"/>
<feOffset dy="-9.26231"/>
<feGaussianBlur stdDeviation="2.59971"/>
<feComposite in2="hardAlpha" operator="arithmetic" k2="-1" k3="1"/>
<feColorMatrix type="matrix" values="0 0 0 0 0.879904 0 0 0 0 0.886528 0 0 0 0 0.994705 0 0 0 1 0"/>
<feBlend mode="normal" in2="shape" result="effect1_innerShadow_949_2851"/>
</filter>
<filter id="filter3_ii_949_2851" x="2.05005" y="-0.590345" width="10.621" height="26.4546" filterUnits="userSpaceOnUse" color-interpolation-filters="sRGB">
<feFlood flood-opacity="0" result="BackgroundImageFix"/>
<feBlend mode="normal" in="SourceGraphic" in2="BackgroundImageFix" result="shape"/>
<feColorMatrix in="SourceAlpha" type="matrix" values="0 0 0 0 0 0 0 0 0 0 0 0 0 0 0 0 0 0 127 0" result="hardAlpha"/>
<feOffset/>
<feGaussianBlur stdDeviation="9.27924"/>
<feComposite in2="hardAlpha" operator="arithmetic" k2="-1" k3="1"/>
<feColorMatrix type="matrix" values="0 0 0 0 0.74 0 0 0 0 0 0 0 0 0 1 0 0 0 0.24 0"/>
<feBlend mode="normal" in2="shape" result="effect1_innerShadow_949_2851"/>
<feColorMatrix in="SourceAlpha" type="matrix" values="0 0 0 0 0 0 0 0 0 0 0 0 0 0 0 0 0 0 127 0" result="hardAlpha"/>
<feOffset dy="-9.26231"/>
<feGaussianBlur stdDeviation="3.32984"/>
<feComposite in2="hardAlpha" operator="arithmetic" k2="-1" k3="1"/>
<feColorMatrix type="matrix" values="0 0 0 0 0.85564 0 0 0 0 0.863539 0 0 0 0 0.992472 0 0 0 1 0"/>
<feBlend mode="normal" in2="effect1_innerShadow_949_2851" result="effect2_innerShadow_949_2851"/>
</filter>
<radialGradient id="paint0_radial_949_2851" cx="0" cy="0" r="1" gradientUnits="userSpaceOnUse" gradientTransform="translate(9.86831 10.1933) rotate(113.452) scale(14.0851 10.5182)">
<stop stop-color="white" stop-opacity="0.59"/>
<stop offset="0.697917" stop-color="white" stop-opacity="0"/>
<stop offset="1" stop-color="white" stop-opacity="0"/>
</radialGradient>
<radialGradient id="paint1_radial_949_2851" cx="0" cy="0" r="1" gradientUnits="userSpaceOnUse" gradientTransform="translate(3.505 23.3898) rotate(-88.0287) scale(16.9181 10.1469)">
<stop stop-opacity="0.54"/>
<stop offset="0.861815" stop-opacity="0"/>
</radialGradient>
<radialGradient id="paint2_radial_949_2851" cx="0" cy="0" r="1" gradientUnits="userSpaceOnUse" gradientTransform="translate(22.9002 15.5713) rotate(122.476) scale(10.1298 9.38519)">
<stop stop-color="white" stop-opacity="0.59"/>
<stop offset="0.697917" stop-color="white" stop-opacity="0"/>
<stop offset="1" stop-color="white" stop-opacity="0"/>
</radialGradient>
<radialGradient id="paint3_radial_949_2851" cx="0" cy="0" r="1" gradientUnits="userSpaceOnUse" gradientTransform="translate(16.7258 24.2989) rotate(-87.109) scale(11.1964 9.8389)">
<stop stop-opacity="0.54"/>
<stop offset="0.861815" stop-opacity="0"/>
</radialGradient>
<radialGradient id="paint4_radial_949_2851" cx="0" cy="0" r="1" gradientUnits="userSpaceOnUse" gradientTransform="translate(9.62627 20.5936) rotate(141.031) scale(6.91053 6.91121)">
<stop stop-color="white" stop-opacity="0.59"/>
<stop offset="0.697917" stop-color="white" stop-opacity="0"/>
<stop offset="1" stop-color="white" stop-opacity="0"/>
</radialGradient>
<radialGradient id="paint5_radial_949_2851" cx="0" cy="0" r="1" gradientUnits="userSpaceOnUse" gradientTransform="translate(3.52712 25.0321) rotate(-84.3979) scale(5.71414 9.6849)">
<stop stop-opacity="0.54"/>
<stop offset="0.861815" stop-opacity="0"/>
</radialGradient>
<radialGradient id="paint6_radial_949_2851" cx="0" cy="0" r="1" gradientUnits="userSpaceOnUse" gradientTransform="translate(12.1074 15.7846) rotate(97.7244) scale(8.38737 2.28488)">
<stop stop-color="white" stop-opacity="0.59"/>
<stop offset="0.697917" stop-color="white" stop-opacity="0"/>
<stop offset="1" stop-color="white" stop-opacity="0"/>
</radialGradient>
<radialGradient id="paint7_radial_949_2851" cx="0" cy="0" r="1" gradientUnits="userSpaceOnUse" gradientTransform="translate(10.8277 24.2727) rotate(-89.3834) scale(10.876 2.04173)">
<stop stop-opacity="0.54"/>
<stop offset="0.861815" stop-opacity="0"/>
</radialGradient>
<radialGradient id="paint8_radial_949_2851" cx="0" cy="0" r="1" gradientUnits="userSpaceOnUse" gradientTransform="translate(18.9147 6.38164) rotate(164.694) scale(8.92342 4.64695)">
<stop stop-color="white" stop-opacity="0.59"/>
<stop offset="0.697917" stop-color="white" stop-opacity="0"/>
<stop offset="1" stop-color="white" stop-opacity="0"/>
</radialGradient>
<radialGradient id="paint9_radial_949_2851" cx="0" cy="0" r="1" gradientUnits="userSpaceOnUse" gradientTransform="translate(9.1443 8.78726) rotate(-73.8322) scale(3.20912 14.9725)">
<stop stop-opacity="0.54"/>
<stop offset="0.861815" stop-opacity="0"/>
</radialGradient>
<radialGradient id="paint10_radial_949_2851" cx="0" cy="0" r="1" gradientUnits="userSpaceOnUse" gradientTransform="translate(24.9689 12.7489) rotate(100.015) scale(7.49419 2.62515)">
<stop stop-color="white" stop-opacity="0.59"/>
<stop offset="0.697917" stop-color="white" stop-opacity="0"/>
<stop offset="1" stop-color="white" stop-opacity="0"/>
</radialGradient>
<radialGradient id="paint11_radial_949_2851" cx="0" cy="0" r="1" gradientUnits="userSpaceOnUse" gradientTransform="translate(23.4894 20.2859) rotate(-89.1972) scale(9.65775 2.36039)">
<stop stop-opacity="0.54"/>
<stop offset="0.861815" stop-opacity="0"/>
</radialGradient>
<clipPath id="clip0_949_2851">
<rect width="25.92" height="25.92" fill="white" transform="matrix(-1 0 0 1 26.8298 0.160156)"/>
</clipPath>
</defs>
</svg>
